<!DOCTYPE svg PUBLIC "-//W3C//DTD SVG 1.1//EN" "http://www.w3.org/Graphics/SVG/1.1/DTD/svg11.dtd">
<!-- Uploaded to: SVG Repo, www.svgrepo.com, Transformed by: SVG Repo Mixer Tools -->
<svg fill="#ffffff" height="800px" width="800px" version="1.1" id="Layer_1" xmlns="http://www.w3.org/2000/svg" xmlns:xlink="http://www.w3.org/1999/xlink" viewBox="0 0 512.001 512.001" xml:space="preserve" stroke="#ffffff">
<g id="SVGRepo_bgCarrier" stroke-width="0"/>
<g id="SVGRepo_tracerCarrier" stroke-linecap="round" stroke-linejoin="round"/>
<g id="SVGRepo_iconCarrier"> <g> <g> <g> <polygon points="512,486.74 512,160.809 364.31,293.588 "/> <polygon points="0,160.799 0,486.751 147.712,293.599 "/> <path d="M309.75,342.636c-15.296,13.909-34.496,20.864-53.717,20.864c-19.243,0-38.507-6.976-53.867-20.949l-22.635-20.352 L34.379,512.001h443.243L332.491,322.198L309.75,342.636z"/> <path d="M502.977,3.926c-5.653-4.011-12.885-5.013-19.413-2.709l-56.981,20.117H64c-11.776,0-21.333,9.557-21.333,21.333v53.056 c0,11.605,2.859,22.464,7.573,32.277H27.35l203.435,182.912c14.379,13.077,36.011,13.12,50.347,0.085l156.075-140.331h53.461 c11.797,0,21.333-9.557,21.333-21.333v-128C512,14.401,508.651,7.916,502.977,3.926z M169.686,112.001l-45.333,16H85.334v-64 h220.331L169.686,112.001z M469.334,128.001H252.544L469.334,51.5V128.001z"/> </g> </g> </g> </g>
</svg>